<?xml version="1.0" encoding="UTF-8"?>
<svg xmlns="http://www.w3.org/2000/svg" xmlns:xlink="http://www.w3.org/1999/xlink" width="810pt" height="809.999993pt" viewBox="0 0 810 809.999993" version="1.2">
<defs>
<clipPath id="clip1">
  <path d="M 469 753.007812 L 555 753.007812 L 555 795.917969 L 469 795.917969 Z M 469 753.007812 "/>
</clipPath>
</defs>
<g id="surface1">
<path style=" stroke:none;fill-rule:nonzero;fill:rgb(98.81897%,81.568909%,73.329163%);fill-opacity:1;" d="M 562.75 449.996094 C 562.75 449.996094 544.898438 468.894531 545.585938 488.222656 C 546.234375 507.53125 554.875 521.398438 565.050781 514.195312 C 575.210938 507.011719 573.023438 494.21875 575.414062 486.625 C 577.769531 479.011719 590.355469 468.097656 586.089844 457.996094 C 581.808594 447.914062 562.75 449.996094 562.75 449.996094 "/>
<path style=" stroke:none;fill-rule:nonzero;fill:rgb(58.81958%,83.139038%,27.059937%);fill-opacity:1;" d="M 587.222656 249.355469 C 587.222656 249.355469 572.132812 254.886719 571.6875 262.425781 C 570.5 282.289062 579.917969 370.070312 579.917969 370.070312 L 557.152344 455.285156 L 587.183594 466.128906 L 622.128906 399.3125 C 622.128906 399.3125 630.546875 391.066406 627.207031 366.300781 C 623.871094 341.515625 616.402344 279.375 616.402344 279.375 C 616.402344 279.375 611.527344 242.839844 587.222656 249.355469 "/>
<path style=" stroke:none;fill-rule:nonzero;fill:rgb(41.178894%,33.729553%,30.979919%);fill-opacity:1;" d="M 621.222656 742.609375 C 621.222656 742.609375 629.378906 775.488281 621.222656 777.902344 C 613.0625 780.296875 604.425781 790.304688 561.230469 781.710938 C 561.230469 781.710938 539.132812 777.585938 539.597656 765.722656 C 540.078125 753.859375 560.878906 748.902344 591.617188 748.902344 L 621.222656 742.609375 "/>
<path style=" stroke:none;fill-rule:nonzero;fill:rgb(9.01947%,19.999695%,23.919678%);fill-opacity:1;" d="M 611.582031 445.039062 C 611.582031 445.039062 623.039062 484.566406 611.582031 520.507812 C 595.175781 572.082031 612.675781 621.988281 613.84375 648.910156 C 615.011719 675.847656 622.167969 745.171875 622.167969 745.171875 C 622.167969 745.171875 595.824219 759.914062 570.890625 750.835938 L 550.164062 614.171875 C 550.164062 614.171875 542.621094 602.476562 539.339844 565.382812 C 536.167969 529.492188 536.167969 437.480469 536.167969 437.480469 L 611.582031 445.039062 "/>
<g clip-path="url(#clip1)" clip-rule="nonzero">
<path style=" stroke:none;fill-rule:nonzero;fill:rgb(52.549744%,43.528748%,39.219666%);fill-opacity:1;" d="M 550.664062 753.785156 C 550.664062 753.785156 558.820312 786.667969 550.664062 789.078125 C 542.488281 791.476562 533.851562 801.480469 490.621094 792.886719 C 490.621094 792.886719 468.558594 788.765625 469.042969 776.882812 C 469.523438 765.019531 490.304688 760.0625 521.058594 760.0625 L 550.664062 753.785156 "/>
</g>
<path style=" stroke:none;fill-rule:nonzero;fill:rgb(96.469116%,54.119873%,41.569519%);fill-opacity:1;" d="M 497.367188 149.101562 C 497.367188 149.101562 489.917969 226.484375 527.289062 230.640625 C 564.660156 234.800781 592.28125 229.339844 592.914062 158.867188 C 593.414062 103.96875 549.71875 106.660156 549.71875 106.660156 C 549.71875 106.660156 500.707031 99.808594 497.367188 149.101562 "/>
<path style=" stroke:none;fill-rule:nonzero;fill:rgb(52.549744%,43.528748%,39.219666%);fill-opacity:1;" d="M 538.410156 174.925781 C 538.855469 174.441406 539.171875 174.164062 539.617188 173.699219 L 539.617188 173.71875 L 538.410156 174.925781 "/>
<path style=" stroke:none;fill-rule:nonzero;fill:rgb(44.309998%,27.449036%,16.079712%);fill-opacity:1;" d="M 495.828125 113.527344 C 489.136719 114.402344 482.722656 106.214844 483.1875 102.054688 C 502.316406 104.542969 539.320312 100.402344 557.875 102.332031 C 613.601562 108.144531 613.992188 223.714844 567.886719 229.359375 C 529.976562 233.984375 524.082031 219.78125 524.359375 200.34375 C 536.058594 204.074219 551 180.382812 534.925781 169.765625 C 529.902344 166.460938 521.578125 175.277344 521.523438 174.535156 C 520.835938 160.074219 521.523438 141.582031 515 137.050781 C 500.707031 127.101562 483.648438 146.816406 478.015625 116.816406 C 482.019531 116.089844 491.4375 113.453125 495.828125 113.527344 "/>
<path style=" stroke:none;fill-rule:nonzero;fill:rgb(52.549744%,43.528748%,39.219666%);fill-opacity:1;" d="M 539.617188 173.71875 L 539.820312 173.515625 C 539.839844 173.960938 539.765625 173.960938 539.617188 173.71875 "/>
<path style=" stroke:none;fill-rule:nonzero;fill:rgb(100%,100%,100%);fill-opacity:1;" d="M 579.601562 237.453125 C 579.601562 237.453125 578.640625 228.523438 572.578125 228.320312 C 566.476562 228.152344 531.609375 231.996094 531.609375 231.996094 C 531.609375 231.996094 523.601562 231.363281 520.746094 243.542969 C 520.746094 243.542969 555.78125 238.734375 579.601562 237.453125 "/>
<path style=" stroke:none;fill-rule:nonzero;fill:rgb(11.759949%,32.548523%,42.749023%);fill-opacity:1;" d="M 570.332031 456.511719 C 570.332031 456.511719 581.195312 504.261719 567.757812 539.519531 C 554.296875 574.792969 548.996094 610.050781 550.164062 636.988281 C 551.351562 663.910156 554.984375 758.074219 554.984375 758.074219 C 554.984375 758.074219 527.902344 772.964844 502.949219 763.867188 L 498.628906 644.65625 C 498.628906 644.65625 498.777344 621.488281 495.515625 584.410156 C 492.34375 548.523438 492.34375 456.511719 492.34375 456.511719 L 570.332031 456.511719 "/>
<path style=" stroke:none;fill-rule:nonzero;fill:rgb(42.349243%,70.979309%,18.429565%);fill-opacity:1;" d="M 495.515625 337.578125 C 489.859375 292.726562 485.835938 274.734375 495.515625 260.53125 C 500.371094 253.441406 511.234375 246.070312 520.746094 244.027344 C 530.21875 242.003906 538.261719 241.410156 550.164062 239.980469 C 573.96875 237.15625 570.945312 233.613281 589.09375 240.667969 C 617.105469 251.582031 611.394531 302.15625 611.394531 302.15625 L 604.890625 385.035156 C 602.980469 413.234375 613.210938 444.648438 613.210938 444.648438 C 604.371094 461.988281 557.542969 472.253906 525.195312 469.546875 C 502.503906 467.652344 489.859375 454.265625 489.859375 454.265625 C 489.859375 454.265625 502.113281 389.992188 495.515625 337.578125 "/>
<path style=" stroke:none;fill-rule:nonzero;fill:rgb(96.469116%,54.119873%,41.569519%);fill-opacity:1;" d="M 456.75 456.511719 C 456.75 456.511719 436.546875 472.851562 434.636719 492.082031 C 432.707031 511.316406 439.4375 526.226562 450.46875 520.453125 C 461.496094 514.695312 461.035156 501.699219 464.390625 494.496094 C 467.761719 487.257812 481.683594 478.140625 478.792969 467.558594 C 475.921875 456.996094 456.75 456.511719 456.75 456.511719 "/>
<path style=" stroke:none;fill-rule:nonzero;fill:rgb(58.81958%,83.139038%,27.059937%);fill-opacity:1;" d="M 506.785156 260.847656 C 506.785156 260.847656 491.121094 264.320312 489.65625 271.746094 C 485.875 291.277344 484.390625 379.59375 484.390625 379.59375 L 450.46875 461.003906 L 478.792969 475.746094 L 522.320312 414.21875 C 522.320312 414.21875 531.757812 407.144531 531.757812 382.15625 C 531.757812 357.148438 531.757812 294.507812 531.757812 294.507812 C 531.757812 294.507812 531.757812 257.652344 506.785156 260.847656 "/>
<path style=" stroke:none;fill-rule:nonzero;fill:rgb(7.449341%,7.449341%,7.058716%);fill-opacity:1;" d="M 340.386719 593.488281 C 340.386719 593.488281 377.425781 626.148438 389.828125 634.539062 C 402.210938 642.929688 413.816406 662.683594 382.453125 672.785156 C 351.085938 682.882812 346.859375 663.761719 329.785156 655.816406 C 312.675781 647.851562 300.957031 647.589844 300.882812 605.054688 C 300.792969 562.523438 340.386719 593.488281 340.386719 593.488281 "/>
<path style=" stroke:none;fill-rule:nonzero;fill:rgb(10.198975%,9.799194%,9.799194%);fill-opacity:1;" d="M 368.101562 327.554688 C 368.101562 327.554688 365.988281 421.496094 362.800781 468.820312 C 359.613281 516.164062 363.171875 607.300781 363.171875 607.300781 C 363.171875 607.300781 362.542969 622.433594 338.757812 625.015625 C 314.953125 627.59375 301.070312 623.84375 300.363281 608.082031 C 299.660156 592.320312 296.730469 483.507812 296.730469 483.507812 C 296.730469 483.507812 295.878906 407.515625 293.191406 393.148438 C 290.519531 378.796875 289.074219 338.398438 292.988281 319.460938 C 296.917969 300.523438 368.101562 327.554688 368.101562 327.554688 "/>
<path style=" stroke:none;fill-rule:nonzero;fill:rgb(10.198975%,9.408569%,9.408569%);fill-opacity:1;" d="M 284.757812 627.503906 C 284.757812 627.503906 321.589844 659.972656 333.9375 668.347656 C 346.265625 676.703125 357.8125 696.324219 326.597656 706.371094 C 295.359375 716.449219 291.1875 697.421875 274.171875 689.492188 C 257.191406 681.601562 245.53125 681.324219 245.4375 639.011719 C 245.34375 596.683594 284.757812 627.503906 284.757812 627.503906 "/>
<path style=" stroke:none;fill-rule:nonzero;fill:rgb(14.118958%,13.729858%,14.118958%);fill-opacity:1;" d="M 318.160156 347.847656 C 318.160156 347.847656 311.078125 439.042969 307.910156 486.105469 C 304.738281 533.207031 302.238281 627.652344 302.238281 627.652344 C 302.238281 627.652344 301.625 642.726562 277.953125 645.289062 C 254.28125 647.867188 240.46875 644.136719 239.746094 628.429688 C 239.058594 612.761719 236.132812 504.671875 236.132812 504.671875 C 236.132812 504.671875 235.277344 429.070312 232.609375 414.777344 C 229.957031 400.480469 228.53125 360.304688 232.441406 341.460938 C 236.335938 322.617188 318.160156 347.847656 318.160156 347.847656 "/>
<path style=" stroke:none;fill-rule:nonzero;fill:rgb(96.469116%,54.119873%,41.569519%);fill-opacity:1;" d="M 435.15625 304.441406 L 455.046875 346.566406 C 455.046875 346.566406 466.929688 342.703125 464.667969 352.265625 C 462.40625 361.828125 436.191406 406.570312 422.195312 370.738281 C 408.199219 334.90625 407.3125 351.578125 410.5 326.328125 C 412.574219 309.859375 435.15625 304.441406 435.15625 304.441406 "/>
<path style=" stroke:none;fill-rule:nonzero;fill:rgb(61.178589%,72.549438%,77.648926%);fill-opacity:1;" d="M 333.101562 143.753906 C 333.101562 143.753906 353.085938 147.578125 361.226562 181.441406 C 369.382812 215.304688 375.148438 265.378906 375.148438 265.378906 L 460.792969 354.828125 L 428.945312 379.261719 L 350.34375 324.546875 C 350.34375 324.546875 336.828125 319.71875 332.878906 296.957031 C 328.652344 272.507812 318.679688 172.773438 318.679688 172.773438 C 318.679688 172.773438 317.050781 141.339844 333.101562 143.753906 "/>
<path style=" stroke:none;fill-rule:nonzero;fill:rgb(100%,100%,100%);fill-opacity:1;" d="M 321.480469 136.699219 C 321.480469 136.699219 344.542969 143.847656 349.378906 159.441406 C 354.179688 175.054688 358.480469 197.1875 358.128906 240.3125 C 357.757812 283.40625 367.527344 334.292969 371.347656 358.875 C 371.347656 358.875 392.035156 450.144531 373.703125 460.152344 C 355.367188 470.121094 292.707031 498.878906 235.480469 480.089844 C 235.480469 480.089844 216.574219 477.304688 216.089844 461.207031 C 215.574219 445.113281 215.703125 300.691406 215.703125 300.691406 L 212.476562 246.625 C 212.476562 246.625 208.230469 194.773438 228.492188 175.78125 C 248.753906 156.804688 267.628906 136.828125 267.628906 136.828125 C 267.628906 136.828125 311.746094 132.503906 321.480469 136.699219 "/>
<path style=" stroke:none;fill-rule:nonzero;fill:rgb(75.689697%,85.488892%,87.059021%);fill-opacity:1;" d="M 326.613281 238.234375 L 342.074219 262.816406 L 326.835938 312.738281 L 319.367188 284.871094 L 326.613281 238.234375 "/>
<path style=" stroke:none;fill-rule:nonzero;fill:rgb(92.939758%,90.589905%,94.898987%);fill-opacity:1;" d="M 294.953125 187.289062 L 323.742188 277.257812 C 323.742188 277.257812 328.988281 243.378906 330.082031 225.960938 C 331.210938 208.53125 329.96875 179.121094 329.96875 179.121094 L 312.582031 164.214844 L 300.828125 167.332031 L 294.953125 187.289062 "/>
<path style=" stroke:none;fill-rule:nonzero;fill:rgb(16.079712%,31.369019%,38.038635%);fill-opacity:1;" d="M 303.054688 176.875 L 308.578125 189.074219 L 316.03125 187.214844 L 319.070312 169.78125 L 311.023438 164.621094 L 303.035156 166.757812 L 303.054688 176.875 "/>
<path style=" stroke:none;fill-rule:nonzero;fill:rgb(21.569824%,40.779114%,51.368713%);fill-opacity:1;" d="M 310.394531 228.414062 L 308.578125 189.074219 L 316.03125 187.214844 L 328.578125 225.945312 L 323.390625 279.394531 L 310.394531 228.414062 "/>
<path style=" stroke:none;fill-rule:nonzero;fill:rgb(75.689697%,85.488892%,87.059021%);fill-opacity:1;" d="M 325.816406 167.035156 C 325.816406 167.035156 332.789062 187.160156 326.300781 259.605469 L 348.414062 222.546875 C 348.414062 222.546875 357.148438 164.695312 338.386719 145.367188 C 309.800781 115.960938 324.871094 158.234375 325.816406 167.035156 "/>
<path style=" stroke:none;fill-rule:nonzero;fill:rgb(75.689697%,85.488892%,87.059021%);fill-opacity:1;" d="M 312.878906 246.367188 L 299.625 271.875 L 333.011719 341.792969 C 333.011719 341.792969 329.488281 285.800781 312.878906 246.367188 "/>
<path style=" stroke:none;fill-rule:nonzero;fill:rgb(75.689697%,85.488892%,87.059021%);fill-opacity:1;" d="M 260.933594 143.789062 C 260.933594 143.789062 227.140625 171.546875 226.027344 176.003906 C 224.898438 180.4375 258.136719 159.480469 285.757812 241.558594 L 321.351562 280.621094 C 321.351562 280.621094 307.632812 171.175781 260.933594 143.789062 "/>
<path style=" stroke:none;fill-rule:nonzero;fill:rgb(100%,100%,100%);fill-opacity:1;" d="M 316.269531 135.585938 C 316.269531 135.585938 325.113281 136.734375 327.988281 154.707031 C 330.859375 172.679688 330.933594 178.621094 325.835938 179.398438 C 318.664062 180.515625 308.539062 167.386719 308.539062 167.386719 C 308.539062 167.386719 304.960938 185.339844 299.402344 187.03125 C 289.964844 189.90625 268.144531 165.140625 264.050781 155.988281 C 259.933594 146.855469 258.097656 143.808594 261.878906 137.941406 C 265.234375 132.726562 273.726562 122.976562 278.769531 122.960938 C 283.792969 122.960938 316.269531 135.585938 316.269531 135.585938 "/>
<path style=" stroke:none;fill-rule:nonzero;fill:rgb(87.059021%,32.939148%,23.139954%);fill-opacity:1;" d="M 318.625 127.15625 C 318.625 127.15625 318.996094 134.191406 318.679688 141.601562 C 318.21875 151.253906 311.097656 164.027344 308.539062 164.230469 C 305.964844 164.4375 280.195312 145.5 277.210938 136.03125 C 274.191406 126.5625 280.324219 116.035156 280.324219 116.035156 L 318.625 127.15625 "/>
<path style=" stroke:none;fill-rule:nonzero;fill:rgb(96.469116%,54.119873%,41.569519%);fill-opacity:1;" d="M 267.515625 94.832031 C 267.421875 62.175781 305.128906 32.378906 337.476562 41.492188 L 346.597656 53.375 C 355.609375 132.074219 340.757812 144.773438 308.707031 145.425781 C 282.902344 145.960938 267.628906 131.59375 267.515625 94.832031 "/>
<path style=" stroke:none;fill-rule:nonzero;fill:rgb(96.469116%,54.119873%,41.569519%);fill-opacity:1;" d="M 272.742188 81.800781 C 272.742188 81.800781 264.660156 72.980469 259.15625 82.117188 C 254.1875 90.339844 251.648438 115.847656 271.484375 110.742188 C 283.367188 107.699219 272.742188 81.800781 272.742188 81.800781 "/>
<path style=" stroke:none;fill-rule:nonzero;fill:rgb(14.118958%,13.729858%,14.118958%);fill-opacity:1;" d="M 304.648438 16.449219 C 339.015625 14.425781 338.703125 34.011719 338.703125 34.011719 C 351.25 36.519531 355.535156 50.644531 351.492188 58.332031 C 349.769531 61.617188 349.007812 63.996094 351.234375 68.5625 C 353.03125 72.238281 350.917969 89.003906 349.195312 91.621094 C 349.046875 84.082031 348.933594 61.582031 339.148438 56.363281 C 295.546875 48.882812 293.839844 90.152344 272.484375 94.683594 C 274.429688 87.925781 271.261719 80.148438 267.480469 79.199219 C 256.671875 80.6875 257.636719 86.980469 258.542969 94.722656 C 259.824219 105.730469 267.664062 106.027344 267.554688 106.027344 C 267.367188 108.738281 268.535156 107.382812 270.203125 121.140625 C 261.84375 117.074219 245.789062 112.042969 245.863281 65.535156 C 245.902344 40.25 267.3125 18.640625 304.648438 16.449219 "/>
<path style=" stroke:none;fill-rule:nonzero;fill:rgb(85.099792%,91.758728%,92.549133%);fill-opacity:1;" d="M 239.726562 196.589844 C 239.726562 196.589844 253.019531 209.363281 247.957031 229.675781 C 242.898438 249.96875 233.574219 308.394531 233.574219 308.394531 L 314.230469 323.617188 L 305.90625 367.75 C 305.90625 367.75 222.671875 355.699219 205.210938 351.449219 C 187.726562 347.214844 180.535156 322.820312 185.003906 296.882812 C 189.507812 270.78125 208.507812 206.042969 208.507812 206.042969 C 208.507812 206.042969 215.460938 185.933594 239.726562 196.589844 "/>
<path style=" stroke:none;fill-rule:nonzero;fill:rgb(96.469116%,54.119873%,41.569519%);fill-opacity:1;" d="M 297.230469 359.914062 C 297.230469 359.914062 310.859375 376.308594 331.175781 375.9375 C 351.472656 375.546875 369.902344 359.597656 362.523438 348.757812 C 355.125 337.914062 341.628906 340.03125 333.679688 337.414062 C 325.742188 334.8125 314.472656 321.351562 303.792969 325.679688 C 293.136719 330.023438 297.230469 359.914062 297.230469 359.914062 "/>
<path style=" stroke:none;fill-rule:nonzero;fill:rgb(48.629761%,71.369934%,70.979309%);fill-opacity:1;" d="M 450.1875 364.296875 L 475.566406 271.375 L 413.761719 228.636719 L 407.976562 226.128906 L 381.265625 345.804688 L 430.945312 382.84375 L 450.1875 364.296875 "/>
<path style=" stroke:none;fill-rule:nonzero;fill:rgb(82.348633%,94.119263%,92.939758%);fill-opacity:1;" d="M 444.40625 361.808594 L 471.527344 270.558594 L 407.976562 226.128906 L 375.460938 343.316406 L 425.144531 380.335938 L 444.40625 361.808594 "/>
<path style=" stroke:none;fill-rule:nonzero;fill:rgb(48.629761%,71.369934%,70.979309%);fill-opacity:1;" d="M 451.226562 283.792969 L 412.539062 254.796875 C 411.964844 254.367188 411.835938 253.605469 412.242188 253.011719 C 412.6875 252.472656 413.484375 252.363281 414.023438 252.773438 L 452.710938 281.789062 C 453.285156 282.179688 453.394531 282.976562 452.953125 283.535156 C 452.710938 283.867188 452.359375 284.054688 451.988281 284.054688 C 451.710938 284.054688 451.449219 283.960938 451.226562 283.792969 "/>
<path style=" stroke:none;fill-rule:nonzero;fill:rgb(48.629761%,71.369934%,70.979309%);fill-opacity:1;" d="M 446.945312 297.644531 L 408.238281 268.699219 C 407.679688 268.273438 407.550781 267.457031 407.976562 266.917969 C 408.40625 266.363281 409.183594 266.269531 409.738281 266.660156 L 448.410156 295.640625 C 449.003906 296.046875 449.113281 296.847656 448.667969 297.386719 C 448.429688 297.738281 448.074219 297.90625 447.6875 297.90625 C 447.425781 297.90625 447.167969 297.8125 446.945312 297.644531 "/>
<path style=" stroke:none;fill-rule:nonzero;fill:rgb(48.629761%,71.369934%,70.979309%);fill-opacity:1;" d="M 443.960938 312.21875 L 405.289062 283.21875 C 404.714844 282.8125 404.585938 282.011719 404.992188 281.457031 C 405.4375 280.878906 406.234375 280.769531 406.773438 281.214844 L 445.460938 310.175781 C 446.035156 310.621094 446.148438 311.382812 445.722656 311.976562 C 445.480469 312.292969 445.089844 312.460938 444.71875 312.460938 C 444.460938 312.460938 444.183594 312.386719 443.960938 312.21875 "/>
<path style=" stroke:none;fill-rule:nonzero;fill:rgb(48.629761%,71.369934%,70.979309%);fill-opacity:1;" d="M 439.324219 325.328125 L 400.617188 296.363281 C 400.0625 295.917969 399.96875 295.121094 400.359375 294.582031 C 400.785156 294.023438 401.5625 293.914062 402.140625 294.304688 L 440.808594 323.285156 C 441.402344 323.730469 441.476562 324.492188 441.070312 325.066406 C 440.828125 325.402344 440.4375 325.566406 440.066406 325.566406 C 439.808594 325.566406 439.546875 325.492188 439.324219 325.328125 "/>
<path style=" stroke:none;fill-rule:nonzero;fill:rgb(48.629761%,71.369934%,70.979309%);fill-opacity:1;" d="M 434.078125 339.863281 L 395.410156 310.882812 C 394.816406 310.457031 394.722656 309.695312 395.148438 309.15625 C 395.539062 308.5625 396.355469 308.449219 396.875 308.859375 L 435.5625 337.859375 C 436.136719 338.265625 436.265625 339.066406 435.820312 339.621094 C 435.601562 339.957031 435.210938 340.125 434.839844 340.125 C 434.5625 340.125 434.300781 340.050781 434.078125 339.863281 "/>
<path style=" stroke:none;fill-rule:nonzero;fill:rgb(96.469116%,54.119873%,41.569519%);fill-opacity:1;" d="M 464.277344 328.074219 C 431.519531 331.433594 413.539062 363.554688 429.984375 376.550781 C 450.113281 392.460938 465.390625 354.417969 466.207031 342.238281 L 464.277344 328.074219 "/>
<path style=" stroke:none;fill-rule:nonzero;fill:rgb(16.079712%,31.369019%,38.038635%);fill-opacity:1;" d="M 248.070312 51.6875 C 248.070312 51.6875 254.296875 57.777344 279.121094 59.207031 C 309.632812 60.96875 323.761719 61.230469 323.761719 61.230469 C 323.761719 61.230469 344.484375 57.179688 352.921875 52.464844 C 352.921875 52.464844 355.980469 58.832031 352.105469 67.113281 C 350.992188 69.527344 343.632812 76.453125 281.863281 74.167969 C 281.863281 74.167969 257.152344 74.597656 247.160156 68.191406 C 247.160156 68.191406 243.992188 57.347656 248.070312 51.6875 "/>
<path style=" stroke:none;fill-rule:nonzero;fill:rgb(16.079712%,31.369019%,38.038635%);fill-opacity:1;" d="M 343.410156 61.898438 C 344.039062 70.566406 337.738281 78.105469 329.339844 78.738281 C 320.941406 79.367188 313.621094 72.851562 312.953125 64.179688 C 312.304688 55.527344 318.605469 47.972656 327.003906 47.339844 C 335.402344 46.710938 342.761719 53.226562 343.410156 61.898438 "/>
<path style=" stroke:none;fill-rule:nonzero;fill:rgb(100%,100%,100%);fill-opacity:1;" d="M 345.355469 61.75 C 346.003906 70.417969 339.722656 77.957031 331.304688 78.585938 C 322.90625 79.21875 315.566406 72.703125 314.917969 64.03125 C 314.269531 55.363281 320.570312 47.84375 328.96875 47.191406 C 337.367188 46.5625 344.691406 53.078125 345.355469 61.75 "/>
<path style=" stroke:none;fill-rule:nonzero;fill:rgb(75.689697%,85.488892%,87.059021%);fill-opacity:1;" d="M 337.125 62.378906 C 337.402344 66.335938 334.550781 69.804688 330.675781 70.085938 C 326.835938 70.382812 323.464844 67.375 323.167969 63.417969 C 322.871094 59.445312 325.742188 55.992188 329.582031 55.695312 C 333.457031 55.417969 336.8125 58.40625 337.125 62.378906 "/>
</g>
</svg>
